<svg xmlns="http://www.w3.org/2000/svg" viewBox="0 0 512 512" role="img" aria-labelledby="title desc">
  <title id="title">Pose Lab</title>
  <desc id="desc">Símbolo minimalista de crânio, costelas e coluna vertebral.</desc>
  <defs>
    <linearGradient id="bg" x1="72" y1="48" x2="438" y2="464" gradientUnits="userSpaceOnUse">
      <stop stop-color="#162630"/>
      <stop offset="0.48" stop-color="#0b141b"/>
      <stop offset="1" stop-color="#070b10"/>
    </linearGradient>
    <linearGradient id="accent" x1="132" y1="112" x2="385" y2="406" gradientUnits="userSpaceOnUse">
      <stop stop-color="#75d8ff"/>
      <stop offset="1" stop-color="#8ff1b4"/>
    </linearGradient>
    <linearGradient id="bone" x1="204" y1="92" x2="304" y2="412" gradientUnits="userSpaceOnUse">
      <stop stop-color="#fffaf0"/>
      <stop offset="1" stop-color="#d1c3a6"/>
    </linearGradient>
  </defs>

  <rect width="512" height="512" rx="120" fill="url(#bg)"/>
  <rect x="8" y="8" width="496" height="496" rx="112" fill="none" stroke="#fff" stroke-opacity="0.06" stroke-width="2"/>

  <g fill="none" stroke="url(#bone)" stroke-linecap="round" stroke-linejoin="round">
    <path d="M244 246C205 240 175 251 153 276C186 274 217 287 247 307" stroke-width="17"/>
    <path d="M268 246C307 240 337 251 359 276C326 274 295 287 265 307" stroke-width="17"/>
    <path d="M245 293C212 289 187 300 170 323C197 321 222 332 247 350" stroke-width="15" opacity="0.9"/>
    <path d="M267 293C300 289 325 300 342 323C315 321 290 332 265 350" stroke-width="15" opacity="0.9"/>
    <path d="M247 341C221 339 202 348 190 365C211 366 230 374 248 387" stroke-width="13" opacity="0.75"/>
    <path d="M265 341C291 339 310 348 322 365C301 366 282 374 264 387" stroke-width="13" opacity="0.75"/>
  </g>

  <path d="M256 225V403" stroke="url(#accent)" stroke-width="12" stroke-linecap="round"/>
  <g fill="#e9dec8">
    <rect x="240" y="244" width="32" height="13" rx="6.5"/>
    <rect x="239" y="274" width="34" height="13" rx="6.5"/>
    <rect x="239" y="304" width="34" height="13" rx="6.5"/>
    <rect x="240" y="334" width="32" height="13" rx="6.5"/>
    <rect x="241" y="364" width="30" height="13" rx="6.5"/>
  </g>

  <path d="M256 88c-48 0-78 30-78 74c0 29 12 49 32 62v23c0 13 10 23 23 23h46c13 0 23-10 23-23v-23c20-13 32-33 32-62c0-44-30-74-78-74Z" fill="url(#bone)"/>
  <path d="M215 151c-15 0-25 10-25 24c0 16 12 26 30 25c15-1 23-11 23-26c0-13-11-23-28-23Zm82 0c15 0 25 10 25 24c0 16-12 26-30 25c-15-1-23-11-23-26c0-13 11-23 28-23Z" fill="#0b141b"/>
  <path d="m256 180-14 27h28Z" fill="#6f705f"/>
  <path d="M224 225h64v22c0 8-7 15-15 15h-34c-8 0-15-7-15-15Z" fill="#b8aa8f"/>
  <path d="M241 228v30m15-30v32m15-32v30" fill="none" stroke="#766e60" stroke-width="5" opacity="0.7"/>

  <path d="M256 387c-20-18-46-21-66-8c10 27 32 45 66 54c34-9 56-27 66-54c-20-13-46-10-66 8Z" fill="#0b141b" stroke="url(#bone)" stroke-width="15" stroke-linejoin="round"/>
</svg>
